<?xml version="1.0" encoding="UTF-8"?>
<svg xmlns="http://www.w3.org/2000/svg" xmlns:xlink="http://www.w3.org/1999/xlink" width="2000pt" height="2000pt" viewBox="0 0 2000 2000">
<rect x="-200" y="-200" width="2400" height="2400" fill="rgb(1.713562%, 2.252197%, 2.304077%)" fill-opacity="1"/>
<path fill-rule="nonzero" fill="rgb(100%, 100%, 100%)" fill-opacity="1" d="M 427.65625 1219.28125 C 419.414062 1223.941406 411.15625 1227.53125 402.882812 1230.050781 C 394.605469 1232.570312 386.480469 1233.820312 378.507812 1233.820312 C 370.398438 1233.820312 362.710938 1232.640625 355.441406 1230.269531 C 348.171875 1227.910156 341.386719 1224.390625 335.089844 1219.730469 C 324.902344 1212.371094 316.894531 1202.628906 311.066406 1190.53125 C 308.316406 1184.671875 306.207031 1178.449219 304.734375 1171.871094 C 303.261719 1165.300781 302.523438 1158.511719 302.523438 1151.519531 C 302.523438 1140.769531 304.382812 1130.488281 308.101562 1120.691406 C 311.820312 1110.871094 317.164062 1102.179688 324.132812 1094.578125 C 331.433594 1086.621094 339.675781 1080.621094 348.859375 1076.601562 C 358.039062 1072.578125 367.921875 1070.570312 378.507812 1070.570312 C 386.148438 1070.570312 394.121094 1071.808594 402.429688 1074.289062 C 410.738281 1076.769531 419.148438 1080.449219 427.65625 1085.339844 L 427.65625 1098.421875 C 418.140625 1092.78125 409.363281 1088.609375 401.324219 1085.898438 C 393.285156 1083.191406 385.542969 1081.839844 378.105469 1081.839844 C 371.605469 1081.839844 365.324219 1082.839844 359.261719 1084.828125 C 353.195312 1086.820312 347.585938 1089.738281 342.425781 1093.570312 C 333.78125 1100.109375 327.03125 1108.488281 322.171875 1118.710938 C 317.3125 1128.941406 314.886719 1140.058594 314.886719 1152.078125 C 314.886719 1161.328125 316.425781 1170.238281 319.507812 1178.800781 C 322.589844 1187.371094 326.980469 1195 332.675781 1201.691406 C 338.371094 1208.378906 345.15625 1213.511719 353.027344 1217.078125 C 360.902344 1220.648438 369.261719 1222.441406 378.105469 1222.441406 C 385.277344 1222.441406 392.914062 1221.089844 401.023438 1218.378906 C 409.128906 1215.671875 418.007812 1211.5 427.65625 1205.859375 L 427.65625 1219.28125 "/>
<path fill-rule="nonzero" fill="rgb(100%, 100%, 100%)" fill-opacity="1" d="M 508.8125 1231.011719 L 508.8125 1073.269531 L 520.570312 1073.269531 L 520.570312 1220.410156 L 586.808594 1220.410156 L 586.808594 1231.011719 L 508.8125 1231.011719 "/>
<path fill-rule="nonzero" fill="rgb(100%, 100%, 100%)" fill-opacity="1" d="M 663.238281 1231.011719 L 663.238281 1073.269531 L 739.425781 1073.269531 L 739.425781 1083.421875 L 674.496094 1083.421875 L 674.496094 1146 L 737.3125 1146 L 737.3125 1156.140625 L 674.496094 1156.140625 L 674.496094 1220.410156 L 741.03125 1220.410156 L 741.03125 1231.011719 L 663.238281 1231.011719 "/>
<path fill-rule="nonzero" fill="rgb(100%, 100%, 100%)" fill-opacity="1" d="M 837.097656 1165.5 L 891.199219 1165.5 L 864.203125 1093.75 Z M 800.574219 1231 L 861.886719 1071.921875 L 866.410156 1071.921875 L 927.726562 1231 L 915.894531 1230.988281 L 895.0625 1176.101562 L 833.230469 1176.101562 L 812.511719 1230.988281 L 800.574219 1231 "/>
<path fill-rule="nonzero" fill="rgb(100%, 100%, 100%)" fill-opacity="1" d="M 996.515625 1231.011719 L 996.515625 1073.269531 L 1008.28125 1073.269531 L 1111.199219 1210.800781 L 1111.199219 1073.269531 L 1122.449219 1073.269531 L 1122.449219 1231.011719 L 1112 1231.011719 L 1007.769531 1091.539062 L 1007.769531 1231.011719 L 996.515625 1231.011719 "/>
<path fill-rule="nonzero" fill="rgb(100%, 100%, 100%)" fill-opacity="1" d="M 1213.660156 1231.011719 L 1213.660156 1073.269531 L 1225.820312 1073.269531 L 1225.820312 1231.011719 L 1213.660156 1231.011719 "/>
<path fill-rule="nonzero" fill="rgb(100%, 100%, 100%)" fill-opacity="1" d="M 1317.230469 1231.011719 L 1317.230469 1073.269531 L 1329 1073.269531 L 1431.910156 1210.800781 L 1431.910156 1073.269531 L 1443.171875 1073.269531 L 1443.171875 1231.011719 L 1432.710938 1231.011719 L 1328.480469 1091.539062 L 1328.480469 1231.011719 L 1317.230469 1231.011719 "/>
<path fill-rule="nonzero" fill="rgb(100%, 100%, 100%)" fill-opacity="1" d="M 1650.660156 1219.28125 C 1642.148438 1224.089844 1633.789062 1227.71875 1625.578125 1230.160156 C 1617.378906 1232.601562 1609.351562 1233.820312 1601.511719 1233.820312 C 1593.398438 1233.820312 1585.71875 1232.640625 1578.449219 1230.269531 C 1571.171875 1227.910156 1564.390625 1224.390625 1558.089844 1219.730469 C 1547.910156 1212.371094 1539.898438 1202.628906 1534.070312 1190.53125 C 1531.320312 1184.671875 1529.210938 1178.449219 1527.738281 1171.871094 C 1526.261719 1165.300781 1525.53125 1158.511719 1525.53125 1151.519531 C 1525.53125 1140.769531 1527.390625 1130.488281 1531.109375 1120.691406 C 1534.828125 1110.871094 1540.171875 1102.179688 1547.140625 1094.578125 C 1554.441406 1086.621094 1562.671875 1080.621094 1571.808594 1076.601562 C 1580.960938 1072.578125 1590.859375 1070.570312 1601.511719 1070.570312 C 1609.28125 1070.570312 1617.269531 1071.789062 1625.480469 1074.230469 C 1633.691406 1076.679688 1642.078125 1080.378906 1650.660156 1085.339844 L 1650.660156 1098.421875 C 1641.148438 1092.78125 1632.371094 1088.609375 1624.328125 1085.898438 C 1616.289062 1083.191406 1608.550781 1081.839844 1601.109375 1081.839844 C 1594.609375 1081.839844 1588.328125 1082.839844 1582.269531 1084.828125 C 1576.199219 1086.820312 1570.589844 1089.738281 1565.429688 1093.570312 C 1556.789062 1100.109375 1550.03125 1108.488281 1545.179688 1118.710938 C 1540.320312 1128.941406 1537.890625 1140.058594 1537.890625 1152.078125 C 1537.890625 1161.328125 1539.429688 1170.238281 1542.511719 1178.800781 C 1545.589844 1187.371094 1549.988281 1195 1555.679688 1201.691406 C 1561.378906 1208.378906 1568.160156 1213.511719 1576.03125 1217.078125 C 1583.910156 1220.648438 1592.328125 1222.441406 1601.308594 1222.441406 C 1607.339844 1222.441406 1613.488281 1221.589844 1619.761719 1219.898438 C 1626.019531 1218.210938 1632.640625 1215.601562 1639.609375 1212.070312 L 1639.609375 1169.558594 L 1609.960938 1169.558594 L 1609.960938 1158.511719 L 1650.660156 1158.511719 L 1650.660156 1219.28125 "/>
<path fill-rule="nonzero" fill="rgb(100%, 100%, 100%)" fill-opacity="1" d="M 691.367188 777.308594 C 688.410156 775.328125 685.621094 773.871094 683 772.929688 C 681.621094 772.460938 680.320312 772.109375 679.09375 771.871094 C 677.867188 771.640625 676.566406 771.519531 675.1875 771.519531 C 670.988281 771.519531 667.511719 772.769531 664.753906 775.28125 C 661.996094 777.78125 660.621094 780.929688 660.621094 784.730469 C 660.621094 787.828125 661.476562 790.328125 663.191406 792.25 C 664.90625 794.171875 668.6875 796.390625 674.53125 798.910156 L 676.046875 799.511719 C 682.5625 802.140625 686.914062 804.691406 689.101562 807.179688 C 690.578125 808.761719 691.722656 810.628906 692.527344 812.78125 C 693.335938 814.929688 693.738281 817.199219 693.738281 819.589844 C 693.738281 825.171875 691.785156 829.78125 687.890625 833.410156 C 683.992188 837.039062 679.003906 838.859375 672.921875 838.859375 C 669.859375 838.859375 666.835938 838.339844 663.847656 837.308594 C 660.855469 836.289062 657.816406 834.710938 654.722656 832.589844 L 654.722656 825.699219 C 658.015625 828.269531 661.175781 830.199219 664.199219 831.488281 C 667.222656 832.769531 670.097656 833.410156 672.820312 833.410156 C 677.390625 833.410156 681.027344 832.160156 683.730469 829.628906 C 686.4375 827.109375 687.789062 823.679688 687.789062 819.339844 C 687.789062 816.179688 686.871094 813.578125 685.042969 811.550781 C 683.210938 809.511719 678.976562 807.121094 672.339844 804.359375 C 665.703125 801.601562 661.140625 798.789062 658.65625 795.941406 C 656.167969 793.078125 654.925781 789.449219 654.925781 785.039062 C 654.925781 779.628906 656.816406 775.160156 660.597656 771.648438 C 664.375 768.128906 669.308594 766.378906 675.390625 766.378906 C 678.210938 766.378906 680.910156 766.75 683.480469 767.488281 C 686.050781 768.230469 688.679688 769.398438 691.367188 771.011719 L 691.367188 777.308594 "/>
<path fill-rule="nonzero" fill="rgb(100%, 100%, 100%)" fill-opacity="1" d="M 736.402344 802.519531 C 736.402344 806.648438 737.175781 810.628906 738.71875 814.460938 C 740.265625 818.289062 742.484375 821.738281 745.375 824.800781 C 748.160156 827.621094 751.488281 829.859375 755.355469 831.5 C 759.21875 833.148438 763.183594 833.96875 767.25 833.96875 C 771.449219 833.96875 775.421875 833.191406 779.171875 831.621094 C 782.914062 830.058594 786.242188 827.800781 789.148438 824.851562 C 792.054688 821.890625 794.28125 818.460938 795.828125 814.558594 C 797.375 810.671875 798.148438 806.648438 798.148438 802.519531 C 798.148438 798.25 797.382812 794.238281 795.855469 790.488281 C 794.324219 786.75 792.089844 783.398438 789.148438 780.441406 C 786.210938 777.480469 782.855469 775.191406 779.09375 773.558594 C 775.328125 771.929688 771.382812 771.109375 767.25 771.109375 C 763.25 771.109375 759.351562 771.910156 755.554688 773.511719 C 751.757812 775.109375 748.386719 777.371094 745.449219 780.308594 C 742.507812 783.261719 740.265625 786.648438 738.71875 790.488281 C 737.175781 794.339844 736.402344 798.351562 736.402344 802.519531 Z M 730.203125 802.261719 C 730.203125 797.488281 731.132812 792.921875 733 788.558594 C 734.863281 784.191406 737.550781 780.28125 741.0625 776.839844 C 744.574219 773.390625 748.582031 770.761719 753.085938 768.921875 C 757.585938 767.089844 762.308594 766.179688 767.25 766.179688 C 772.222656 766.179688 776.960938 767.078125 781.464844 768.898438 C 785.964844 770.710938 789.964844 773.351562 793.460938 776.808594 C 796.953125 780.269531 799.632812 784.210938 801.5 788.609375 C 803.363281 793.011719 804.296875 797.648438 804.296875 802.519531 C 804.296875 806.320312 803.773438 809.910156 802.734375 813.300781 C 801.691406 816.699219 800.113281 819.910156 797.996094 822.929688 C 794.5 828.070312 790.066406 832.050781 784.6875 834.851562 C 779.3125 837.660156 773.5 839.058594 767.25 839.058594 C 762.308594 839.058594 757.570312 838.148438 753.035156 836.339844 C 748.5 834.519531 744.492188 831.871094 741.015625 828.371094 C 737.535156 824.878906 734.863281 820.890625 733 816.398438 C 731.132812 811.921875 730.203125 807.210938 730.203125 802.261719 "/>
<path fill-rule="nonzero" fill="rgb(100%, 100%, 100%)" fill-opacity="1" d="M 845.496094 837.800781 L 845.496094 767.28125 L 851.390625 767.289062 L 877.695312 799.78125 L 903.914062 767.28125 L 909.914062 767.28125 L 909.914062 837.800781 L 904.117188 837.800781 L 904.117188 775.550781 L 877.707031 808.359375 L 851.144531 775.550781 L 851.144531 837.800781 L 845.496094 837.800781 "/>
<path fill-rule="nonzero" fill="rgb(100%, 100%, 100%)" fill-opacity="1" d="M 955.351562 837.800781 L 955.351562 767.28125 L 993.558594 767.28125 L 993.558594 771.820312 L 960.996094 771.820312 L 960.996094 799.800781 L 992.5 799.800781 L 992.5 804.328125 L 960.996094 804.328125 L 960.996094 833.058594 L 994.363281 833.058594 L 994.363281 837.800781 L 955.351562 837.800781 "/>
<path fill-rule="nonzero" fill="rgb(100%, 100%, 100%)" fill-opacity="1" d="M 1040.808594 772.019531 L 1040.808594 799.089844 L 1045.140625 799.089844 C 1050.71875 799.089844 1054.480469 798.960938 1056.429688 798.710938 C 1058.378906 798.460938 1060.101562 798 1061.578125 797.328125 C 1064.160156 796.21875 1066.101562 794.640625 1067.398438 792.589844 C 1068.691406 790.539062 1069.339844 787.980469 1069.339844 784.929688 C 1069.339844 780.859375 1067.878906 777.691406 1064.949219 775.429688 C 1062.03125 773.160156 1057.910156 772.019531 1052.601562 772.019531 Z M 1035.160156 767.28125 L 1052.300781 767.28125 C 1059.789062 767.28125 1065.539062 768.808594 1069.539062 771.839844 C 1073.539062 774.890625 1075.539062 779.25 1075.539062 784.929688 C 1075.539062 789.261719 1074.429688 792.839844 1072.210938 795.660156 C 1069.988281 798.480469 1066.621094 800.648438 1062.078125 802.160156 C 1063.359375 802.871094 1064.511719 803.730469 1065.558594 804.730469 C 1066.460938 805.578125 1067.410156 806.679688 1068.378906 808.058594 L 1087.789062 837.800781 L 1081.398438 837.789062 L 1070.148438 820.460938 C 1069.039062 818.78125 1068.03125 817.269531 1067.128906 815.949219 C 1066.21875 814.621094 1065.308594 813.339844 1064.398438 812.089844 C 1062.789062 809.878906 1061.511719 808.289062 1060.570312 807.359375 C 1059.359375 806.148438 1057.710938 805.269531 1055.628906 804.730469 C 1054.550781 804.46875 1053.308594 804.269531 1051.898438 804.128906 C 1050.488281 804 1048.71875 803.929688 1046.609375 803.929688 L 1040.808594 803.929688 L 1040.808594 837.800781 L 1035.160156 837.800781 L 1035.160156 767.28125 "/>
<path fill-rule="nonzero" fill="rgb(100%, 100%, 100%)" fill-opacity="1" d="M 1155.101562 777.308594 C 1152.140625 775.328125 1149.351562 773.871094 1146.730469 772.929688 C 1145.351562 772.460938 1144.050781 772.109375 1142.820312 771.871094 C 1141.601562 771.640625 1140.300781 771.519531 1138.921875 771.519531 C 1134.71875 771.519531 1131.238281 772.769531 1128.480469 775.28125 C 1125.730469 777.78125 1124.351562 780.929688 1124.351562 784.730469 C 1124.351562 787.828125 1125.210938 790.328125 1126.921875 792.25 C 1128.640625 794.171875 1132.421875 796.390625 1138.261719 798.910156 L 1139.78125 799.511719 C 1146.289062 802.140625 1150.648438 804.691406 1152.828125 807.179688 C 1154.308594 808.761719 1155.449219 810.628906 1156.261719 812.78125 C 1157.058594 814.929688 1157.46875 817.199219 1157.46875 819.589844 C 1157.46875 825.171875 1155.519531 829.78125 1151.621094 833.410156 C 1147.71875 837.039062 1142.730469 838.859375 1136.648438 838.859375 C 1133.589844 838.859375 1130.570312 838.339844 1127.578125 837.308594 C 1124.589844 836.289062 1121.539062 834.710938 1118.449219 832.589844 L 1118.449219 825.699219 C 1121.75 828.269531 1124.910156 830.199219 1127.929688 831.488281 C 1130.949219 832.769531 1133.828125 833.410156 1136.550781 833.410156 C 1141.121094 833.410156 1144.761719 832.160156 1147.460938 829.628906 C 1150.171875 827.109375 1151.519531 823.679688 1151.519531 819.339844 C 1151.519531 816.179688 1150.601562 813.578125 1148.769531 811.550781 C 1146.941406 809.511719 1142.710938 807.121094 1136.070312 804.359375 C 1129.429688 801.601562 1124.871094 798.789062 1122.390625 795.941406 C 1119.898438 793.078125 1118.660156 789.449219 1118.660156 785.039062 C 1118.660156 779.628906 1120.550781 775.160156 1124.328125 771.648438 C 1128.109375 768.128906 1133.039062 766.378906 1139.121094 766.378906 C 1141.941406 766.378906 1144.640625 766.75 1147.210938 767.488281 C 1149.78125 768.230469 1152.410156 769.398438 1155.101562 771.011719 L 1155.101562 777.308594 "/>
<path fill-rule="nonzero" fill="rgb(100%, 100%, 100%)" fill-opacity="1" d="M 1198.058594 837.800781 L 1198.058594 767.28125 L 1236.269531 767.28125 L 1236.269531 771.820312 L 1203.710938 771.820312 L 1203.710938 799.800781 L 1235.210938 799.800781 L 1235.210938 804.328125 L 1203.710938 804.328125 L 1203.710938 833.058594 L 1237.078125 833.058594 L 1237.078125 837.800781 L 1198.058594 837.800781 "/>
<path fill-rule="nonzero" fill="rgb(100%, 100%, 100%)" fill-opacity="1" d="M 1296.578125 837.800781 L 1296.578125 772.378906 L 1270.320312 772.378906 L 1270.320312 767.28125 L 1328.890625 767.28125 L 1328.890625 772.378906 L 1302.621094 772.378906 L 1302.621094 837.800781 L 1296.578125 837.800781 "/>
<path fill-rule="nonzero" fill="rgb(100%, 100%, 100%)" fill-opacity="1" d="M 363.710938 1006.691406 L 410.703125 875.519531 L 415.34375 875.511719 L 463.691406 1006.539062 L 510.300781 875.5 L 524.078125 875.511719 L 464.601562 1036.058594 L 461.988281 1036.070312 L 413.1875 903.46875 L 364.832031 1036.058594 L 362.332031 1036.058594 L 301.609375 875.511719 L 315.554688 875.519531 L 363.710938 1006.691406 "/>
<path fill-rule="nonzero" fill="rgb(100%, 100%, 100%)" fill-opacity="1" d="M 614.246094 1033.25 L 614.246094 875.511719 L 627.980469 875.511719 L 627.980469 1033.25 L 614.246094 1033.25 "/>
<path fill-rule="nonzero" fill="rgb(100%, 100%, 100%)" fill-opacity="1" d="M 740.507812 1033.25 L 740.507812 875.511719 L 753.796875 875.511719 L 870.015625 1013.039062 L 870.015625 875.511719 L 882.726562 875.511719 L 882.726562 1033.25 L 870.925781 1033.25 L 753.21875 893.78125 L 753.21875 1033.25 L 740.507812 1033.25 "/>
<path fill-rule="nonzero" fill="rgb(100%, 100%, 100%)" fill-opacity="1" d="M 1046.21875 886.898438 L 1007.851562 886.898438 L 1007.851562 1022.199219 L 1046.21875 1022.199219 C 1056.960938 1022.199219 1065.988281 1021.351562 1073.289062 1019.660156 C 1080.589844 1017.96875 1087.039062 1015.25 1092.640625 1011.488281 C 1101.570312 1005.628906 1108.488281 997.660156 1113.410156 987.589844 C 1115.910156 982.550781 1117.800781 977.308594 1119.089844 971.859375 C 1120.371094 966.410156 1121.019531 960.640625 1121.019531 954.550781 C 1121.019531 942.601562 1118.5 931.570312 1113.46875 921.460938 C 1108.441406 911.351562 1101.488281 903.359375 1092.640625 897.5 C 1087.339844 893.96875 1080.859375 891.320312 1073.179688 889.550781 C 1065.488281 887.78125 1056.511719 886.898438 1046.21875 886.898438 Z M 1049.398438 875.511719 C 1061.5 875.511719 1071.769531 876.660156 1080.210938 878.949219 C 1088.648438 881.25 1096.351562 884.871094 1103.308594 889.828125 C 1113.21875 897.128906 1120.980469 906.460938 1126.578125 917.851562 C 1132.179688 929.238281 1134.980469 941.398438 1134.980469 954.320312 C 1134.980469 967.25 1132.21875 979.351562 1126.691406 990.628906 C 1121.171875 1001.898438 1113.371094 1011.261719 1103.308594 1018.699219 C 1096.648438 1023.511719 1088.929688 1027.199219 1080.160156 1029.75 C 1075.839844 1030.878906 1071.128906 1031.75 1066.019531 1032.339844 C 1060.921875 1032.949219 1055.371094 1033.25 1049.398438 1033.25 L 994.34375 1033.25 L 994.34375 875.511719 L 1049.398438 875.511719 "/>
<path fill-rule="nonzero" fill="rgb(100%, 100%, 100%)" fill-opacity="1" d="M 1243.300781 954.320312 C 1243.300781 963.570312 1245.039062 972.46875 1248.53125 981.039062 C 1252.011719 989.609375 1257 997.320312 1263.511719 1004.160156 C 1269.789062 1010.46875 1277.28125 1015.46875 1285.980469 1019.148438 C 1294.679688 1022.839844 1303.609375 1024.679688 1312.769531 1024.679688 C 1322.230469 1024.679688 1331.179688 1022.929688 1339.609375 1019.441406 C 1348.050781 1015.941406 1355.539062 1010.890625 1362.089844 1004.269531 C 1368.628906 997.660156 1373.648438 989.988281 1377.128906 981.269531 C 1380.609375 972.550781 1382.351562 963.570312 1382.351562 954.320312 C 1382.351562 944.78125 1380.628906 935.808594 1377.179688 927.429688 C 1373.738281 919.058594 1368.710938 911.558594 1362.089844 904.941406 C 1355.46875 898.328125 1347.921875 893.199219 1339.441406 889.550781 C 1330.96875 885.910156 1322.078125 884.078125 1312.769531 884.078125 C 1303.761719 884.078125 1294.988281 885.871094 1286.441406 889.441406 C 1277.890625 893.011719 1270.300781 898.078125 1263.679688 904.660156 C 1257.058594 911.238281 1252.011719 918.828125 1248.53125 927.429688 C 1245.039062 936.039062 1243.300781 945.011719 1243.300781 954.320312 Z M 1229.339844 953.761719 C 1229.339844 943.089844 1231.441406 932.859375 1235.640625 923.089844 C 1239.839844 913.320312 1245.898438 904.589844 1253.800781 896.878906 C 1261.710938 889.179688 1270.730469 883.28125 1280.878906 879.179688 C 1291.011719 875.078125 1301.648438 873.039062 1312.769531 873.039062 C 1323.96875 873.039062 1334.640625 875.058594 1344.78125 879.121094 C 1354.921875 883.179688 1363.921875 889.078125 1371.789062 896.820312 C 1379.660156 904.570312 1385.699219 913.359375 1389.898438 923.210938 C 1394.101562 933.050781 1396.199219 943.429688 1396.199219 954.320312 C 1396.199219 962.820312 1395.019531 970.859375 1392.679688 978.449219 C 1390.328125 986.039062 1386.78125 993.21875 1382.011719 999.980469 C 1374.140625 1011.488281 1364.148438 1020.378906 1352.039062 1026.648438 C 1339.941406 1032.929688 1326.851562 1036.058594 1312.769531 1036.058594 C 1301.648438 1036.058594 1290.980469 1034.039062 1280.761719 1029.980469 C 1270.550781 1025.921875 1261.519531 1019.980469 1253.691406 1012.160156 C 1245.859375 1004.351562 1239.839844 995.421875 1235.640625 985.390625 C 1231.441406 975.351562 1229.339844 964.808594 1229.339844 953.761719 "/>
<path fill-rule="nonzero" fill="rgb(100%, 100%, 100%)" fill-opacity="1" d="M 1538.019531 1006.691406 L 1585.011719 875.519531 L 1589.648438 875.511719 L 1638 1006.539062 L 1684.609375 875.5 L 1698.390625 875.511719 L 1638.910156 1036.058594 L 1636.300781 1036.070312 L 1587.5 903.46875 L 1539.140625 1036.058594 L 1536.640625 1036.058594 L 1475.921875 875.511719 L 1489.871094 875.519531 L 1538.019531 1006.691406 "/>
<path fill-rule="nonzero" fill="rgb(92.76886%, 14.868164%, 17.214966%)" fill-opacity="1" d="M 625.230469 808.429688 L 301.609375 808.429688 L 301.609375 799.089844 L 625.230469 799.089844 L 625.230469 808.429688 "/>
<path fill-rule="nonzero" fill="rgb(92.76886%, 14.868164%, 17.214966%)" fill-opacity="1" d="M 1698.390625 807.929688 L 1338.28125 807.929688 L 1338.28125 798.589844 L 1698.390625 798.589844 L 1698.390625 807.929688 "/>
</svg>
